# xmcd CD database file
#
# Track frame offsets:
#	150
#	10179
#	25377
#	43226
#	59764
#	71270
#	84006
#	98279
#	112099
#	125709
#	138884
#	151592
#
# Disc length: 2185 seconds
#
# Revision: 5
# Processed by: cddbd v1.5.1PL2 Copyright (c) Steve Scherf et al.
# Submitted via: CDex 1.50
#
DISCID=9208870c
DTITLE=Variados - Country Collection - Volume 8
DYEAR=1997
DGENRE=Country
TTITLE0=Bellamy Brothers - Pit Bull And Chains Saws
TTITLE1=Joe Nichols - Independent Girl
TTITLE2=Caryl Mack Parker - Better Love Next Time
TTITLE3=Gretchen Peters - Waiting For The Light To Turn Green
TTITLE4=Clinton Gregory - Till This Rings Turn Green
TTITLE5=Holy Paxman - You Are Not In Kansas Anymore
TTITLE6=Greg William - San Francisco
TTITLE7=Western Fyer - Black And Blue
TTITLE8=Joe Ballbin - We Shall Dance
TTITLE9=Janett Angely - She Drew A Broken Heart
TTITLE10=Mergori Landy - You Are My Love
TTITLE11=Dian McHill - Little Miss Honk Tonk
EXTD=YEAR: 1997
EXTT0=
EXTT1=
EXTT2=
EXTT3=
EXTT4=
EXTT5=
EXTT6=
EXTT7=
EXTT8=
EXTT9=
EXTT10=
EXTT11=
PLAYORDER=
